PathFileType	4	(X/Y/Z)	/Users/niels/Desktop/University/Third Semester/Perception and Action/Exam/Gymnastics Motion Tracking/Code for Gym Tracking/Analyzed Data/Webcam_Backflip/id8_2_trajectory_Sports2D/id8_2_trajectory_Sports2D_px_person00.trc
DataRate	CameraRate	NumFrames	NumMarkers	Units	OrigDataRate	OrigDataStartFrame	OrigNumFrames
29.714285714285715	29.714285714285715	9	22	m	29.714285714285715	65	105
Frame#	Time	Hip			RHip			RKnee			RAnkle			RBigToe			RSmallToe			RHeel			LHip			LKnee			LAnkle			LBigToe			LSmallToe			LHeel			Neck			Head			Nose			RShoulder			RElbow			RWrist			LShoulder			LElbow			LWrist		
		X1	Y1	Z1	X2	Y2	Z2	X3	Y3	Z3	X4	Y4	Z4	X5	Y5	Z5	X6	Y6	Z6	X7	Y7	Z7	X8	Y8	Z8	X9	Y9	Z9	X10	Y10	Z10	X11	Y11	Z11	X12	Y12	Z12	X13	Y13	Z13	X14	Y14	Z14	X15	Y15	Z15	X16	Y16	Z16	X17	Y17	Z17	X18	Y18	Z18	X19	Y19	Z19	X20	Y20	Z20	X21	Y21	Z21	X22	Y22	Z22
65	2.1875	1.017155366727122	-0.5702371107984336	0.0	0.9712247342129197	-0.5779319808529291	0.0	1.0482047584414251	-0.7637528609372256	0.0	0.9982348407394923	-0.9689569478498281	0.0	1.0639781411936249	-1.0169520382303197	0.0	1.0393631204625136	-1.0225961265126007	0.0	0.9787611077078695	-0.992006848620295	0.0	1.0621216598608003	-0.5737089964200961	0.0	1.0536373406121318	-0.760869093531712	0.0	0.9526619185227053	-0.9165753143681398	0.0	0.9980683427471532	-0.9677691697607254	0.0	1.0124544178910377	-0.957045351831594	0.0	0.9223201960294803	-0.9335181181728834	0.0	0.9906080701362515	-0.2720520626545595	0.0	0.9809003324092804	-0.1393879474723254	0.0	1.0023406588205703	-0.20006300495683332	0.0	0.9020417162342348	-0.3304429282780051	0.0	0.7767752976570753	-0.3918809043124443	0.0	0.6416817327920221	-0.39982640141240194	0.0	1.087795460159082	-0.29872751338201886	0.0	1.1499874745467031	-0.407943054455347	0.0	1.0202628758835413	-0.3862173467517052	0.0
66	2.2211538461538463	1.0162431753408996	-0.566484848828384	0.0	0.9697118178794948	-0.5742556209408555	0.0	1.0442381846330786	-0.7620918175141139	0.0	0.9986730944544727	-0.9673396911846132	0.0	1.0643113068041883	-1.0170157715436134	0.0	1.0394423711620633	-1.022503379752051	0.0	0.9794114573119586	-0.9911457858132691	0.0	1.0613880702655032	-0.5704164148853005	0.0	1.051201129121199	-0.7599976015863645	0.0	0.9526145255001187	-0.9164204308469195	0.0	1.0053367170750147	-0.9691516358428691	0.0	1.0197905996638241	-0.9587631266454414	0.0	0.9213680690741122	-0.9333117792340656	0.0	0.9901534275539912	-0.2678339473852225	0.0	0.9804181565394188	-0.13502714042895225	0.0	1.0011646156284417	-0.19696192958098413	0.0	0.9005737342514101	-0.32442758079231765	0.0	0.7730930364040087	-0.3789803107133208	0.0	0.6390885530957634	-0.375504366057226	0.0	1.08752600356543	-0.29573362936840775	0.0	1.1479466352655112	-0.40475261815176916	0.0	1.0193731838955635	-0.38009579050886877	0.0
67	2.254807692307692	1.0153345257959279	-0.5625017217990069	0.0	0.9680945542989376	-0.570190640289375	0.0	1.0399011549714787	-0.7601940570676178	0.0	0.9989964549796566	-0.9660103434674332	0.0	1.064237035315428	-1.0169003899698352	0.0	1.0389493673175676	-1.0222354002123397	0.0	0.9798973775216326	-0.9903460272577248	0.0	1.0607909156676523	-0.566834807624935	0.0	1.0481347736599498	-0.7589675193229508	0.0	0.9522567101898106	-0.9169302972413772	0.0	1.0119973994991003	-0.9705827850402766	0.0	1.0261605191507481	-0.9600212643651286	0.0	0.9204091454310043	-0.9336670176011391	0.0	0.9899014808117728	-0.2635276857401818	0.0	0.9804497370929482	-0.1305299371722909	0.0	1.0004367365174989	-0.19392170179820936	0.0	0.899062647616591	-0.3185273237952252	0.0	0.7709022243953451	-0.3671676913312457	0.0	0.6379603516876794	-0.353341152170872	0.0	1.0876740887270742	-0.2928377487455755	0.0	1.1460981858050912	-0.4016702324990238	0.0	1.018544075570682	-0.37415876690915695	0.0
68	2.2884615384615383	1.0144420113767778	-0.5583345285584289	0.0	0.9664821095130729	-0.5658225452905516	0.0	1.0353452112674133	-0.7577142968921732	0.0	0.9989422580709719	-0.9648895176869339	0.0	1.0634859510286447	-1.016301181940986	0.0	1.0377401499852552	-1.0216762527781593	0.0	0.9801473669796267	-0.9895565004863651	0.0	1.0602854421015415	-0.5629831485275291	0.0	1.0446231481876325	-0.757402523677305	0.0	0.95188096671157	-0.9178886968192086	0.0	1.0178123754251565	-0.9716596334306101	0.0	1.0309147935969787	-0.9605254147797108	0.0	0.9198237106167124	-0.9345336172405524	0.0	0.9898079818100614	-0.25922038925679136	0.0	0.9807599667564161	-0.1261499176522643	0.0	0.9998197839353866	-0.1905788585331266	0.0	0.8976170960368444	-0.3130398267818847	0.0	0.7697366823549114	-0.3564698335538279	0.0	0.6376430676309001	-0.333461031128176	0.0	1.0881284682160015	-0.28993095717516637	0.0	1.144670218615554	-0.39881994788018615	0.0	1.017925751844999	-0.36869311327476145	0.0
69	2.3221153846153846	1.0135809150623156	-0.5541064669691405	0.0	0.9649688396516307	-0.5614045111913931	0.0	1.0307954532971317	-0.7545434570403976	0.0	0.9983309145367499	-0.9638325347602036	0.0	1.0622101890439737	-1.015106953091773	0.0	1.0359675834102524	-1.020826506871485	0.0	0.9801024659399411	-0.988816044071986	0.0	1.059786471644453	-0.5589989527751513	0.0	1.04093676239143	-0.7551907950011745	0.0	0.9519288936083935	-0.9191889779641336	0.0	1.0236733658780104	-0.9725354837253334	0.0	1.0344321673961423	-0.960597450940659	0.0	0.9200078555561518	-0.935999760551509	0.0	0.9899019447567218	-0.2549334045978587	0.0	0.9811704148752798	-0.12206892832709815	0.0	0.999193040995708	-0.18653185704033667	0.0	0.8963927861908246	-0.3081108372538486	0.0	0.7692613321237254	-0.346903387045142	0.0	0.6379341544674528	-0.3159134214523989	0.0	1.0888081380745127	-0.28690603338602894	0.0	1.1438681370970032	-0.39629866879097225	0.0	1.0177532542294248	-0.3638325284535062	0.0
70	2.355769230769231	1.0127730957422438	-0.5500618257473712	0.0	0.9636108052657731	-0.5573306548481849	0.0	1.0264719418106876	-0.7510380465515054	0.0	0.9971239896600087	-0.9627484532503743	0.0	1.06070032887565	-1.0133651527060998	0.0	1.0338467293698759	-1.019680210627799	0.0	0.9796690838657295	-0.9881718193435322	0.0	1.059191405463888	-0.555170377641439	0.0	1.0374151905890945	-0.752578630256396	0.0	0.9526610569477125	-0.9207720693004189	0.0	1.0299404553220983	-0.9735198444286169	0.0	1.0372916790518187	-0.9607301388596516	0.0	0.9211499148330559	-0.9380136196349885	0.0	0.9902092785271018	-0.25075145401667687	0.0	0.9816417772506264	-0.11836369785418054	0.0	0.9987524903524186	-0.18175254540278113	0.0	0.8954937748125338	-0.3037722584946319	0.0	0.7692436777179509	-0.3385162649206151	0.0	0.6387712997554048	-0.3007401732719654	0.0	1.0895849746505786	-0.2838148426538776	0.0	1.1437401983947102	-0.3940661766622777	0.0	1.0181102599667415	-0.35961625265054314	0.0
71	2.3894230769230766	1.012024616065024	-0.5465121936621903	0.0	0.9624210903137624	-0.5539560158737223	0.0	1.0225799934031885	-0.7478176126349504	0.0	0.9954350356665843	-0.9617190583061613	0.0	1.0592056365182232	-1.011234423616328	0.0	1.0315963194855606	-1.0182228500113892	0.0	0.9787336417629491	-0.9876727697500405	0.0	1.0584599889693076	-0.55180974018311	0.0	1.034397049391509	-0.7499968767492156	0.0	0.9539647795354952	-0.9225407810902618	0.0	1.036076856009325	-0.974707990328765	0.0	1.0397724181142585	-0.9612360861459048	0.0	0.9231006720775001	-0.9403262673255416	0.0	0.9907162747508529	-0.24685375262914222	0.0	0.9822339991911302	-0.11504097060048811	0.0	0.9987831655305579	-0.1767094446092316	0.0	0.8949439546446875	-0.30001110140055437	0.0	0.7694361278009377	-0.33134024583553406	0.0	0.639974173239519	-0.28791473098142584	0.0	1.0902586314851923	-0.28087605422647244	0.0	1.1441003001408372	-0.3919604939616454	0.0	1.0188506939965891	-0.3559931009202197	0.0
72	2.423076923076923	1.011336455243773	-0.5436546390155	0.0	0.9614096562780728	-0.5514066382097855	0.0	1.0193481725030418	-0.7453223409151163	0.0	0.9934946874273843	-0.9609939708833807	0.0	1.0579649432173075	-1.0090328744829022	0.0	1.029517236297312	-1.016600909522913	0.0	0.9772502001230938	-0.9874193691635429	0.0	1.0576944079728614	-0.5490903292022241	0.0	1.0320285191417746	-0.7477581523231046	0.0	0.9554234503133857	-0.9243195768755025	0.0	1.0411933599020708	-0.9759716639766687	0.0	1.0418552221016164	-0.9621681057378645	0.0	0.9254397808531912	-0.9426514884973187	0.0	0.991367516555216	-0.24339699496836023	0.0	0.9830139240999922	-0.11209777828594218	0.0	0.9994048441105822	-0.17206792451258984	0.0	0.8947534307591433	-0.29679386150293524	0.0	0.7696210828739338	-0.3253991132617428	0.0	0.6412820169838724	-0.2772592532994423	0.0	1.0906859406149527	-0.2783427060793706	0.0	1.1445962052392147	-0.3898208281597226	0.0	1.0196949390996717	-0.35282414035537213	0.0
73	2.456730769230769	1.0107303406597208	-0.5414276370724663	0.0	0.9606046592921458	-0.5495508148467634	0.0	1.016971813926893	-0.7435654314908207	0.0	0.9915461668477384	-0.9607914190095437	0.0	1.0571806895443094	-1.0071836173901239	0.0	1.0279344740251684	-1.0151670470631713	0.0	0.9752821416425365	-0.9874789715000032	0.0	1.0570857224873602	-0.5469540458399075	0.0	1.0301904380099918	-0.7458601260540336	0.0	0.9565475994035673	-0.9259376441701053	0.0	1.0445433762706322	-0.9771855788933373	0.0	1.0434042793839653	-0.9634292518769796	0.0	0.9276590908716477	-0.9448432736359358	0.0	0.9921076494585589	-0.24042006181090333	0.0	0.9840272632267147	-0.1095276745577092	0.0	1.0006019943884192	-0.1682473142903577	0.0	0.8949710480000046	-0.2940685176525079	0.0	0.769757383792028	-0.32073912805266447	0.0	0.6426326485198534	-0.2684542848909719	0.0	1.0908703349700584	-0.2763759218887006	0.0	1.1449123009943118	-0.38760653247690147	0.0	1.0203471283570764	-0.3499070322161123	0.0
